<?xml version="1.0" encoding="utf-8"?>
<!-- Generator: Adobe Illustrator 22.0.1, SVG Export Plug-In . SVG Version: 6.00 Build 0)  -->
<svg version="1.1" id="Layer_1" xmlns="http://www.w3.org/2000/svg" xmlns:xlink="http://www.w3.org/1999/xlink" x="0px" y="0px"
	 viewBox="0 0 36 36" style="enable-background:new 0 0 36 36;" xml:space="preserve">
<style type="text/css">
	.st0{clip-path:url(#SVGID_2_);}
	.st1{fill:#E7B00C;}
</style>
<g>
	<defs>
		<rect id="SVGID_1_" width="36" height="36"/>
	</defs>
	<clipPath id="SVGID_2_">
		<use xlink:href="#SVGID_1_"  style="overflow:visible;"/>
	</clipPath>
	<g class="st0">
		<path class="st1" d="M17.9,0c-0.1,0-0.1,0-0.2,0c-0.6,0.1-1.1,0.7-1.1,1.4v4.2c0,0.5,0.3,1,0.7,1.2c0.4,0.2,1,0.2,1.4,0
			c0.4-0.3,0.7-0.7,0.7-1.2V1.4c0-0.4-0.1-0.8-0.4-1.1C18.7,0.1,18.3-0.1,17.9,0z M6,4.8C5.5,4.9,5,5.3,4.9,5.8
			c-0.1,0.5,0,1,0.4,1.4l2.9,2.9c0.3,0.4,0.9,0.6,1.4,0.5c0.5-0.1,0.9-0.5,1-1c0.1-0.5-0.1-1.1-0.5-1.4L7.2,5.3
			C6.9,5,6.5,4.8,6.1,4.8C6.1,4.8,6,4.8,6,4.8z M29.6,4.8c-0.3,0-0.6,0.2-0.8,0.4l-2.9,2.9c-0.4,0.3-0.6,0.9-0.5,1.4
			c0.1,0.5,0.5,0.9,1,1c0.5,0.1,1.1-0.1,1.4-0.5l2.9-2.9c0.4-0.4,0.6-1.1,0.3-1.6C30.8,5.1,30.2,4.8,29.6,4.8z M18,9.9
			c-4.4,0-8,3.6-8,8c0,4.6,3.9,7.2,3.9,9.6V28c0,0.6,0.5,1,1,1h6.1c0.6,0,1-0.5,1-1v-0.6c0-2.3,3.9-4.9,3.9-9.6
			C26,13.5,22.4,9.9,18,9.9z M18,12.5c1,0,2,0.3,2.8,0.8c-0.1,0-0.2,0-0.3,0c-3.8,0-6.8,3.1-6.8,6.8c0,0.2,0,0.5,0,0.7
			c-0.6-0.8-1-1.9-1-3C12.7,14.9,15.1,12.5,18,12.5z M1,16.6c-0.8,0.1-1.3,0.8-1.2,1.6s0.8,1.3,1.6,1.2h4.2c0.5,0,1-0.3,1.2-0.7
			c0.2-0.4,0.2-1,0-1.4c-0.3-0.4-0.7-0.7-1.2-0.7H1.4c0,0-0.1,0-0.1,0s-0.1,0-0.1,0S1,16.6,1,16.6z M30.1,16.6
			c-0.8,0.1-1.3,0.8-1.2,1.6s0.8,1.3,1.6,1.2h4.2c0.5,0,1-0.3,1.2-0.7c0.2-0.4,0.2-1,0-1.4c-0.3-0.4-0.7-0.7-1.2-0.7h-4.2
			c0,0-0.1,0-0.1,0c0,0-0.1,0-0.1,0C30.2,16.6,30.1,16.6,30.1,16.6z M9,25.4c-0.3,0-0.6,0.2-0.8,0.4l-2.9,2.9
			c-0.4,0.3-0.6,0.9-0.5,1.4c0.1,0.5,0.5,0.9,1,1c0.5,0.1,1.1-0.1,1.4-0.5l2.9-2.9c0.4-0.4,0.5-1,0.3-1.5c-0.2-0.5-0.7-0.9-1.3-0.8
			C9.1,25.4,9.1,25.4,9,25.4z M26.5,25.4c-0.5,0.1-0.9,0.5-1.1,1c-0.1,0.5,0,1,0.4,1.4l2.9,2.9c0.3,0.4,0.9,0.6,1.4,0.5
			c0.5-0.1,0.9-0.5,1-1c0.1-0.5-0.1-1.1-0.5-1.4l-2.9-2.9c-0.3-0.3-0.6-0.4-1-0.4c0,0-0.1,0-0.1,0C26.6,25.4,26.6,25.4,26.5,25.4z
			 M14.9,30.5c-0.6,0-1,0.5-1,1v2.1c0,0.6,0.5,1,1,1h0.9C16.2,35.4,17,36,18,36s1.8-0.5,2.3-1.3h0.9c0.6,0,1-0.5,1-1v-2.1
			c0-0.6-0.5-1-1-1H14.9z"/>
	</g>
</g>
</svg>
