<?xml version="1.0" encoding="utf-8"?>
<!-- Generator: Adobe Illustrator 22.0.1, SVG Export Plug-In . SVG Version: 6.00 Build 0)  -->
<svg version="1.1" id="Layer_1" xmlns="http://www.w3.org/2000/svg" xmlns:xlink="http://www.w3.org/1999/xlink" x="0px" y="0px"
	 viewBox="0 0 36 36" style="enable-background:new 0 0 36 36;" xml:space="preserve">
<style type="text/css">
	.st0{fill:#E7B00C;}
</style>
<g id="Layer_1_1_">
	<path class="st0" d="M28,0.2c-2.6,0-7.8,0-10.3,2.6l-0.5,0.5c-3,3-3.2,7.5-0.8,10.7L1.7,27.3c-1.2,1.2-2.7,4.3,0,7.1
		c2.7,2.7,5.9,1.2,7.1,0c0,0,9.6-10.5,10.5-11.5c0.8-0.9,0.4-1.9,0.4-1.9s-1.7-2.3-2.6-3.8c-0.5-0.8-0.3-0.9,0.4-0.4
		c1.8,1.1,3.7,2.3,4.3,2.6c0.1,0,0.2,0.2,0.3,0.2l0,0c3.2,2.4,7.7,2.2,10.7-0.8l0.5-0.5c2.4-2.4,2.5-7.6,2.5-10.2
		c0-0.8-0.6-0.3-0.6-0.3s-4.4,4.4-4.8,4.8C30,13,28.5,13,28.5,13s-4-0.4-4.5-1c-0.6-0.6-1-4.8-1-4.8S22.9,6,23.5,5.5
		c0.6-0.6,4.8-4.8,4.8-4.8S28.8,0.2,28,0.2z M5.6,27.9c1.4,0,2.5,1.1,2.5,2.5S7,32.8,5.6,32.8s-2.5-1.1-2.5-2.5S4.3,27.9,5.6,27.9z"
		/>
</g>
</svg>
